<svg width="26" height="20" viewBox="0 0 26 20" fill="none" xmlns="http://www.w3.org/2000/svg">
<path fill-rule="evenodd" clip-rule="evenodd" d="M25.9167 9.99999C25.9167 9.66847 25.785 9.35053 25.5506 9.11611C25.3162 8.88169 24.9982 8.74999 24.6667 8.74999H1.33337C1.00185 8.74999 0.683911 8.88169 0.44949 9.11611C0.21507 9.35053 0.083374 9.66847 0.083374 9.99999C0.083374 10.3315 0.21507 10.6495 0.44949 10.8839C0.683911 11.1183 1.00185 11.25 1.33337 11.25H24.6667C24.9982 11.25 25.3162 11.1183 25.5506 10.8839C25.785 10.6495 25.9167 10.3315 25.9167 9.99999ZM25.9167 1.66666C25.9167 1.33514 25.785 1.01719 25.5506 0.782773C25.3162 0.548352 24.9982 0.416656 24.6667 0.416656H1.33337C1.00185 0.416656 0.683911 0.548352 0.44949 0.782773C0.21507 1.01719 0.083374 1.33514 0.083374 1.66666C0.083374 1.99818 0.21507 2.31612 0.44949 2.55054C0.683911 2.78496 1.00185 2.91666 1.33337 2.91666H24.6667C24.9982 2.91666 25.3162 2.78496 25.5506 2.55054C25.785 2.31612 25.9167 1.99818 25.9167 1.66666ZM25.9167 18.3333C25.9167 18.0018 25.785 17.6839 25.5506 17.4494C25.3162 17.215 24.9982 17.0833 24.6667 17.0833H1.33337C1.00185 17.0833 0.683911 17.215 0.44949 17.4494C0.21507 17.6839 0.083374 18.0018 0.083374 18.3333C0.083374 18.6648 0.21507 18.9828 0.44949 19.2172C0.683911 19.4516 1.00185 19.5833 1.33337 19.5833H24.6667C24.9982 19.5833 25.3162 19.4516 25.5506 19.2172C25.785 18.9828 25.9167 18.6648 25.9167 18.3333Z" fill="white"/>
</svg>
