<svg width="13" height="25" viewBox="0 0 13 25" fill="none" xmlns="http://www.w3.org/2000/svg">
<g clip-path="url(#clip0_30_33)">
<path d="M0 9.41081H2.81414C2.81414 8.7105 2.80466 8.04857 2.81414 7.37704C2.83309 5.92846 2.83309 4.47029 3.30685 3.07927C3.98907 1.09346 5.3914 0.124548 7.43805 0.0382083C9.27624 -0.0481309 11.1239 0.0190206 13 0.0190206V4.67175H11.0386C10.4606 4.68134 9.87318 4.67175 9.28571 4.71971C8.17711 4.79646 7.52332 5.48717 7.44752 6.61918C7.43805 6.71511 7.44752 6.81104 7.44752 6.90697V9.41081H12.7821V14.1115H7.44752V24.9902H2.83309V14.1499H0V9.41081Z" fill="white"/>
</g>
<defs>
<clipPath id="clip0_30_33">
<rect width="13" height="25" fill="white"/>
</clipPath>
</defs>
</svg>
