<svg width="26" height="26" viewBox="0 0 26 26" fill="none" xmlns="http://www.w3.org/2000/svg">
<path fill-rule="evenodd" clip-rule="evenodd" d="M7.38423 0.0753849C8.72441 0.0139576 9.15159 0 12.5641 0C15.9774 0 16.4039 0.0146544 17.7433 0.0753849C19.0814 0.136115 19.9952 0.349009 20.7944 0.659618C21.6326 0.975218 22.3919 1.46971 23.0196 2.10869C23.6586 2.73624 24.1532 3.49564 24.4687 4.33394C24.7792 5.13315 24.9915 6.04685 25.0529 7.38423C25.1144 8.72441 25.1283 9.15159 25.1283 12.5641C25.1283 15.9767 25.1137 16.4039 25.0529 17.7441C24.9922 19.0814 24.7792 19.9952 24.4687 20.7944C24.1476 21.6202 23.7176 22.3216 23.0196 23.0196C22.3921 23.6586 21.6326 24.1532 20.7944 24.4687C19.9952 24.7792 19.0814 24.9915 17.7441 25.0529C16.4039 25.1144 15.9767 25.1283 12.5641 25.1283C9.15159 25.1283 8.72441 25.1137 7.38423 25.0529C6.04685 24.9922 5.13315 24.7792 4.33394 24.4687C3.50819 24.1476 2.80669 23.7176 2.10869 23.0196C1.46959 22.3921 0.975069 21.6326 0.659618 20.7944C0.349009 19.9952 0.136812 19.0814 0.0753849 17.7441C0.0139576 16.4039 0 15.9774 0 12.5641C0 9.15089 0.0146544 8.72441 0.0753849 7.38493C0.136115 6.04685 0.349009 5.13315 0.659618 4.33394C0.975218 3.4957 1.46971 2.73633 2.10869 2.10869C2.73623 1.46959 3.49563 0.975069 4.33394 0.659618C5.13315 0.349009 6.04685 0.136812 7.38423 0.0753849ZM17.6414 2.33693C16.3166 2.2769 15.9188 2.26364 12.5641 2.26364C9.20952 2.26364 8.81166 2.2769 7.48684 2.33693C6.26184 2.39277 5.59663 2.59728 5.15409 2.7697C4.56777 2.99725 4.14896 3.26947 3.70921 3.70921C3.27017 4.14896 2.99725 4.56777 2.7697 5.15409C2.59728 5.59663 2.39277 6.26184 2.33693 7.48684C2.2769 8.81166 2.26364 9.20952 2.26364 12.5641C2.26364 15.9188 2.2769 16.3166 2.33693 17.6414C2.39277 18.8664 2.59728 19.5317 2.7697 19.9743C2.97098 20.52 3.29202 21.0137 3.70921 21.4191C4.11458 21.8363 4.60831 22.1573 5.15409 22.3586C5.59663 22.5311 6.26184 22.7355 7.48684 22.7914C8.81166 22.8514 9.20883 22.8647 12.5641 22.8647C15.9195 22.8647 16.3166 22.8514 17.6414 22.7914C18.8664 22.7355 19.5317 22.5311 19.9743 22.3586C20.5605 22.1311 20.9794 21.8589 21.4191 21.4191C21.8363 21.0138 22.1573 20.52 22.3586 19.9743C22.5311 19.5317 22.7355 18.8664 22.7914 17.6414C22.8514 16.3166 22.8647 15.9188 22.8647 12.5641C22.8647 9.20952 22.8514 8.81166 22.7914 7.48684C22.7355 6.26184 22.5311 5.59663 22.3586 5.15409C22.1311 4.56777 21.8589 4.14896 21.4191 3.70921C20.9794 3.27017 20.5605 2.99725 19.9743 2.7697C19.5317 2.59728 18.8664 2.39277 17.6414 2.33693ZM10.9599 16.4372C11.4686 16.648 12.0136 16.7563 12.5641 16.7563C13.6761 16.7563 14.7423 16.3147 15.5285 15.5285C16.3148 14.7423 16.7565 13.676 16.7565 12.5641C16.7565 11.4523 16.3148 10.386 15.5285 9.59979C14.7423 8.81359 13.6761 8.37191 12.5641 8.37191C12.0136 8.37191 11.4686 8.48034 10.9599 8.69102C10.4512 8.9017 9.9891 9.21049 9.59982 9.59979C9.21054 9.98907 8.90174 10.4512 8.69106 10.9598C8.48038 11.4684 8.37195 12.0136 8.37195 12.5641C8.37195 13.1147 8.48038 13.6599 8.69106 14.1685C8.90174 14.6771 9.21054 15.1392 9.59982 15.5285C9.9891 15.9177 10.4512 16.2266 10.9599 16.4372ZM7.99771 7.99766C9.20881 6.78656 10.8514 6.10617 12.5641 6.10617C14.277 6.10617 15.9196 6.78656 17.1306 7.99766C18.3417 9.20877 19.0221 10.8514 19.0221 12.5641C19.0221 14.2769 18.3417 15.9195 17.1306 17.1306C15.9196 18.3417 14.277 19.0221 12.5641 19.0221C10.8514 19.0221 9.20881 18.3417 7.99771 17.1306C6.78661 15.9195 6.10621 14.2769 6.10621 12.5641C6.10621 10.8514 6.78661 9.20877 7.99771 7.99766ZM20.4541 7.06834C20.7403 6.78205 20.9011 6.39377 20.9011 5.98891C20.9011 5.58403 20.7403 5.19576 20.4541 4.90948C20.1677 4.6232 19.7795 4.46236 19.3746 4.46236C18.9698 4.46236 18.5815 4.6232 18.2952 4.90948C18.0089 5.19576 17.8481 5.58403 17.8481 5.98891C17.8481 6.39377 18.0089 6.78205 18.2952 7.06834C18.5815 7.35462 18.9698 7.51545 19.3746 7.51545C19.7795 7.51545 20.1677 7.35462 20.4541 7.06834Z" fill="white"/>
</svg>
